<?xml version="1.0" standalone="no"?>
<!DOCTYPE svg PUBLIC "-//W3C//DTD SVG 20010904//EN"
 "http://www.w3.org/TR/2001/REC-SVG-20010904/DTD/svg10.dtd">
<svg version="1.0" xmlns="http://www.w3.org/2000/svg"
 width="2304.000000pt" height="1856.000000pt" viewBox="0 0 2304.000000 1856.000000"
 preserveAspectRatio="xMidYMid meet">

<g transform="translate(0.000000,1856.000000) scale(0.100000,-0.100000)"
fill="#000000" stroke="none">
<path d="M7485 14528 c-1071 -1069 -1951 -1950 -1956 -1960 -7 -13 352 -377
1947 -1972 1076 -1076 1959 -1956 1964 -1956 5 0 21 14 37 31 15 17 37 39 48
47 11 9 234 231 497 494 262 263 478 478 481 478 2 0 229 -224 503 -497 274
-274 514 -511 532 -527 l33 -29 151 149 c221 218 308 312 308 333 0 9 -28 45
-62 78 -221 215 -3181 3191 -3291 3309 l-39 41 89 94 c48 52 140 146 203 210
63 63 443 445 843 848 l728 732 27 -23 c34 -29 420 -420 479 -485 23 -27 43
-56 43 -65 0 -15 -300 -320 -1160 -1183 -61 -61 -110 -116 -110 -124 0 -10
2271 -2285 3675 -3680 l235 -234 21 19 c12 10 409 408 883 883 474 475 883
885 910 910 53 50 254 249 299 297 15 16 35 36 45 45 51 48 91 100 86 113 -3
8 0 17 7 22 8 4 10 3 5 -4 -4 -7 -2 -12 4 -12 16 0 470 453 470 468 0 7 5 12
12 12 16 0 68 51 68 67 0 7 7 13 16 13 10 0 14 6 10 15 -3 8 -2 14 2 13 16 -5
51 23 46 37 -4 10 3 18 20 25 14 5 26 12 26 16 0 11 -55 -7 -63 -22 -4 -8 -14
-14 -21 -14 -8 0 -16 -7 -20 -15 -3 -8 -15 -15 -27 -15 -22 0 -22 0 2 20 58
48 74 63 72 66 -9 12 -1 15 12 4 12 -10 15 -9 15 4 0 13 5 16 21 11 16 -5 20
-3 17 6 -3 8 -12 13 -21 11 -11 -2 -15 2 -11 13 3 8 17 15 30 15 13 0 24 5 24
10 0 17 24 6 33 -13 6 -16 24 -2 116 89 60 60 107 112 104 117 -3 5 -10 1 -16
-8 -7 -8 -23 -17 -37 -20 -25 -4 -25 -4 -5 13 12 9 24 25 28 35 8 20 34 23 39
4 2 -11 8 -9 23 6 20 19 20 19 -2 13 -13 -4 -23 -4 -23 1 0 16 15 30 38 37 12
4 22 12 22 17 0 6 -6 7 -12 3 -9 -5 -9 -3 1 9 7 9 17 15 21 12 5 -3 6 4 3 14
-3 12 -11 17 -19 14 -8 -3 -12 -9 -9 -13 6 -9 -34 -26 -50 -21 -33 10 -56 7
-51 -5 4 -11 2 -11 -15 -1 -16 10 -17 13 -4 15 8 2 13 7 10 12 -3 4 4 6 15 3
24 -6 28 15 4 24 -9 3 -14 15 -12 32 1 14 -2 25 -8 24 -6 -1 -11 5 -11 13 0
10 4 11 10 5 7 -7 15 -5 24 7 8 9 12 12 9 5 -4 -6 -2 -14 4 -18 5 -3 10 -1 10
4 0 6 3 10 8 10 21 -4 31 3 25 17 -4 11 -8 12 -13 4 -5 -8 -9 -3 -13 11 -8 29
-2 35 18 19 12 -10 15 -10 15 2 0 8 10 25 22 38 l22 23 -25 -6 c-23 -6 -24 -6
-4 10 19 15 19 15 -8 11 -22 -4 -25 -3 -16 9 9 11 8 12 -5 7 -9 -3 -16 -1 -16
5 0 6 -8 11 -17 11 -15 0 -16 2 -3 10 13 9 13 10 -1 10 -8 0 -20 -5 -26 -11
-7 -7 -12 -6 -17 6 -3 9 -2 13 4 10 14 -9 12 8 -2 24 -11 11 -10 13 4 8 9 -3
23 2 34 14 16 18 16 19 -7 20 -13 0 -18 3 -11 6 6 2 12 10 12 16 0 8 -4 7 -12
-1 -16 -16 -25 -15 -25 3 0 8 3 12 7 10 4 -2 7 3 7 11 0 8 -6 13 -13 10 -14
-5 -40 30 -50 68 -5 23 -3 26 17 25 17 -1 19 -3 7 -6 -30 -8 -20 -22 15 -21
17 1 26 3 20 5 -7 3 -13 9 -13 14 0 6 5 7 10 4 6 -3 10 -2 10 4 0 5 -12 14
-27 20 -26 9 -25 10 12 6 30 -4 35 -3 20 4 -18 9 -17 10 8 10 16 1 26 -3 23
-7 -3 -5 1 -9 9 -9 8 0 12 4 9 9 -3 4 7 13 21 18 32 12 38 12 31 1 -3 -5 1
-11 9 -15 8 -3 17 -2 19 3 8 12 -41 34 -60 27 -13 -5 -15 -2 -11 19 4 25 4 25
-13 8 -9 -11 -20 -25 -23 -33 -4 -10 -6 -8 -6 6 -1 12 -8 27 -16 34 -8 7 -12
16 -9 21 3 5 -2 9 -11 9 -9 0 -13 -4 -10 -10 3 -5 1 -10 -4 -10 -6 0 -11 -5
-11 -11 0 -6 9 -9 20 -6 11 3 22 1 25 -3 5 -9 -58 -5 -99 5 -12 3 -15 2 -8 -1
20 -10 13 -23 -9 -17 -22 6 -22 6 1 -25 13 -17 27 -29 32 -26 4 3 8 0 8 -5 0
-6 -5 -11 -11 -11 -6 0 -9 -6 -6 -12 3 -8 -6 -14 -24 -15 -16 -1 -29 2 -29 7
0 6 -5 10 -11 10 -5 0 -8 -4 -5 -9 3 -5 -6 -12 -20 -15 -30 -8 -46 0 -20 10 9
3 16 15 16 26 0 22 24 50 35 40 4 -4 5 0 3 8 -7 34 -48 33 -48 -1 0 -10 -5
-19 -11 -19 -5 0 -7 -5 -4 -10 3 -6 -4 -14 -17 -19 -13 -6 -17 -10 -10 -10 6
-1 12 -9 11 -18 0 -11 -3 -13 -6 -5 -2 6 -9 12 -15 12 -11 0 -38 -25 -38 -36
0 -5 5 -3 12 4 18 18 28 15 28 -10 0 -12 -3 -19 -6 -15 -4 3 -13 -1 -22 -9
-13 -14 -13 -17 -1 -25 10 -6 10 -9 2 -9 -7 0 -13 -7 -13 -15 0 -10 -10 -14
-35 -13 -28 1 -33 4 -23 15 9 11 13 11 19 2 6 -10 11 -10 24 1 13 10 13 15 3
21 -10 6 -8 12 7 23 19 15 19 15 1 16 -17 0 -386 -358 -386 -374 0 -9 43 14
51 27 4 5 12 8 18 6 8 -3 4 -12 -9 -24 -55 -51 -98 -99 -95 -106 3 -4 -6 -9
-20 -11 -34 -7 -31 4 10 49 19 21 35 41 35 46 0 4 -55 -47 -122 -114 -68 -66
-154 -151 -193 -188 -38 -38 -109 -108 -157 -157 -48 -49 -103 -104 -122 -123
-20 -18 -33 -38 -30 -42 3 -5 2 -8 -3 -7 -10 4 -93 -72 -93 -84 0 -5 6 -6 13
-2 7 4 9 3 4 -2 -5 -5 -14 -9 -20 -9 -7 -1 -11 -7 -9 -14 1 -7 -2 -9 -8 -6
-13 8 -32 -10 -218 -198 -75 -77 -188 -189 -251 -250 -62 -62 -229 -228 -370
-370 -141 -142 -319 -320 -396 -395 -77 -75 -219 -217 -316 -314 -97 -98 -180
-178 -185 -178 -10 0 -146 133 -413 404 -147 149 -162 168 -150 183 13 16 440
442 709 708 370 365 1500 1506 1500 1515 0 5 -7 10 -15 10 -16 0 -20 12 -8 23
3 4 12 -1 19 -11 12 -16 15 -14 48 17 20 19 36 42 36 50 0 8 3 11 7 8 8 -8 32
23 33 43 0 8 -134 148 -297 311 -164 163 -521 522 -793 799 -272 276 -500 508
-506 514 -219 214 -717 714 -724 726 -8 14 13 41 112 141 66 67 145 149 175
181 29 32 53 56 53 54 0 -2 44 41 99 96 59 60 105 99 114 96 14 -3 256 -224
296 -271 63 -72 869 -877 879 -877 6 0 11 -4 9 -9 -1 -4 18 -25 43 -46 25 -20
48 -46 52 -57 4 -11 12 -16 18 -13 5 3 10 2 10 -4 0 -10 315 -330 380 -386 76
-65 93 -76 102 -62 6 8 8 5 6 -10 -2 -12 5 -30 14 -40 55 -56 179 -180 196
-195 11 -9 23 -14 26 -11 3 4 6 -2 6 -11 0 -10 20 -38 45 -63 25 -24 45 -48
45 -53 0 -6 4 -10 8 -10 9 0 122 -106 122 -114 0 -14 107 -105 118 -101 7 3
11 1 7 -4 -7 -12 22 -41 40 -41 7 0 15 -9 18 -20 6 -25 25 -26 35 -2 4 9 13
18 20 20 8 1 11 -2 7 -8 -3 -5 -2 -10 4 -10 6 0 8 -6 5 -14 -7 -18 15 -31 29
-17 13 13 28 15 26 4 -3 -19 2 -27 10 -15 6 10 11 9 22 -4 9 -12 10 -15 2 -10
-8 4 -13 2 -13 -4 0 -6 -4 -8 -10 -5 -5 3 -10 2 -10 -3 0 -12 29 -24 41 -16 5
3 9 12 9 20 0 15 9 18 25 6 18 -13 15 -31 -5 -42 -11 -6 -18 -15 -15 -21 4 -5
0 -9 -8 -9 -8 0 -18 -7 -21 -16 -4 -12 -2 -15 9 -11 8 4 17 2 20 -3 4 -6 1
-10 -4 -10 -6 0 -3 -9 6 -19 9 -11 21 -17 26 -14 6 4 8 -1 4 -11 -5 -12 10
-32 51 -71 99 -95 94 -91 128 -94 11 -1 13 -7 9 -21 -5 -16 -2 -20 15 -20 12
0 19 -4 16 -9 -4 -5 3 -7 14 -4 20 5 29 -12 9 -19 -10 -3 22 -48 35 -48 4 0
18 12 32 28 22 23 23 28 10 30 -10 2 -23 -2 -31 -8 -23 -19 -19 7 4 32 15 16
26 19 48 13 25 -6 26 -8 9 -14 -18 -7 -18 -8 -2 -14 10 -4 23 1 33 13 10 11
27 20 38 19 19 0 19 -1 -2 -11 -29 -14 -30 -28 -1 -20 17 4 20 2 15 -11 -4
-11 -1 -17 9 -17 12 0 13 4 4 20 -9 16 -8 22 4 26 9 3 21 4 28 1 8 -4 6 -6 -4
-6 -10 -1 -18 -6 -18 -12 0 -6 7 -8 16 -5 9 3 20 6 25 6 5 0 9 7 9 15 0 13
-13 18 -45 18 -6 0 -11 8 -11 18 0 11 4 19 8 19 4 0 8 -4 8 -10 0 -13 27 -13
35 0 4 6 -1 7 -11 3 -11 -4 -15 -3 -11 4 9 15 -14 23 -34 12 -8 -4 -22 -3 -30
2 -11 7 -8 9 11 10 23 0 23 1 5 9 -19 8 -19 8 -1 16 10 4 26 2 35 -3 14 -9 17
-7 18 9 2 18 -2 19 -34 13 -31 -6 -35 -4 -25 8 7 7 9 17 5 20 -3 4 1 7 10 7 9
0 17 -4 17 -10 0 -5 7 -7 15 -3 9 3 22 -2 30 -13 12 -17 13 -16 8 9 -4 22 -9
26 -28 21 -13 -3 -26 0 -30 7 -5 8 -4 10 3 5 7 -4 12 -4 12 1 0 13 -14 30 -30
36 -12 4 -11 6 3 6 10 1 16 5 12 10 -3 5 0 13 6 17 8 4 9 3 5 -4 -13 -22 13
-12 39 14 15 15 23 29 17 33 -15 10 -21 70 -6 64 15 -5 26 -43 12 -43 -5 0 -6
-4 -3 -10 7 -12 45 10 45 26 0 7 7 14 15 18 9 3 12 12 8 22 -5 13 -2 16 9 11
12 -4 14 -1 11 13 -8 29 29 34 72 9 35 -21 37 -21 27 -3 -6 10 -23 30 -37 43
-14 13 -23 26 -21 29 3 2 12 -3 21 -12 9 -9 21 -13 27 -10 17 11 -49 63 -74
58 -18 -4 -19 -3 -5 4 17 7 17 9 -1 26 -13 11 -22 14 -27 7 -3 -6 -23 6 -46
29 -22 22 -45 40 -51 40 -5 0 -8 6 -5 13 2 6 10 11 16 9 8 -1 8 4 -1 17 -9 15
-16 17 -25 9 -10 -8 -22 -3 -48 16 -27 21 -35 23 -35 12 0 -9 7 -16 15 -16 8
0 15 -6 15 -14 0 -8 7 -17 16 -20 12 -5 13 -10 6 -19 -13 -15 -12 -57 1 -57 4
0 5 -4 2 -10 -3 -5 -1 -10 4 -10 22 0 10 -16 -11 -17 -13 0 -17 1 -11 4 10 3
10 10 2 24 -5 11 -14 17 -20 14 -5 -4 -9 1 -9 9 0 9 -5 16 -11 16 -19 0 11 30
30 30 13 1 12 3 -4 12 -29 18 -58 20 -52 6 2 -7 10 -12 16 -10 6 1 11 -1 11
-4 0 -9 -28 -34 -39 -34 -5 0 -9 -8 -8 -18 0 -10 7 -19 14 -19 8 0 12 6 9 14
-3 7 1 13 10 13 10 0 14 -6 11 -15 -4 -8 -2 -17 3 -20 6 -4 10 -12 10 -18 0
-8 -3 -7 -9 2 -11 17 -32 5 -24 -14 6 -18 -10 -19 -39 -4 -17 9 -18 13 -7 21
10 7 8 7 -8 3 -14 -4 -23 -2 -23 4 0 6 7 11 16 11 8 0 13 4 10 9 -4 5 0 12 6
14 8 4 9 6 2 6 -6 1 -17 -6 -24 -14 -12 -14 -15 -14 -30 0 -12 11 -20 13 -25
6 -3 -6 -3 -11 2 -12 4 0 -1 -4 -12 -8 -12 -5 -28 -3 -41 6 -19 12 -22 12 -28
-4 -7 -17 -8 -17 -17 0 -7 12 -5 23 7 40 9 12 14 15 11 6 -4 -13 1 -16 23 -15
33 2 53 15 24 17 -10 1 -22 1 -26 0 -5 0 -8 4 -8 10 0 6 9 8 20 4 24 -8 28 13
4 22 -13 5 -13 7 -2 14 10 7 9 9 -4 9 -9 0 -19 8 -21 18 -3 12 -5 11 -6 -6 -1
-19 -3 -21 -15 -10 -10 9 -11 15 -3 20 8 5 5 9 -6 14 -9 3 -17 12 -17 20 0 8
-5 14 -11 14 -6 0 -9 7 -5 15 3 8 1 15 -4 15 -6 0 -10 5 -10 12 0 6 7 4 18 -5
22 -20 102 -21 102 -1 0 7 5 14 12 16 7 3 6 7 -5 11 -11 4 -17 1 -17 -8 0 -18
-16 -20 -26 -3 -4 6 3 19 16 30 12 10 18 19 14 20 -5 0 -13 2 -19 3 -5 2 -18
3 -27 4 -25 1 -23 21 2 21 12 0 17 5 14 14 -3 8 0 17 5 21 6 3 8 11 5 17 -4 6
-1 14 6 18 9 6 -1 22 -36 58 -27 28 -80 82 -118 122 -38 40 -74 69 -81 66 -8
-3 -16 5 -19 19 -3 12 -13 25 -21 29 -19 7 -19 1 1 -19 21 -20 10 -32 -13 -14
-15 12 -16 12 -10 -5 6 -14 4 -17 -9 -12 -8 3 -18 6 -20 6 -2 0 -4 5 -4 11 0
5 5 7 10 4 16 -10 12 11 -5 25 -10 9 -15 9 -15 1 0 -14 -37 -15 -45 -1 -3 6
-23 11 -43 11 -28 2 -31 3 -11 6 22 3 26 8 21 26 -5 20 -4 20 11 8 15 -12 17
-11 17 4 0 9 -29 46 -65 82 -36 36 -63 68 -60 71 3 3 13 -5 24 -16 10 -12 23
-22 29 -22 6 0 14 -9 17 -20 3 -11 11 -20 17 -20 6 0 17 -8 24 -17 7 -10 16
-15 20 -11 4 5 -25 38 -64 75 -92 87 -102 96 -108 90 -2 -2 2 -10 11 -17 20
-16 19 -34 -1 -26 -12 4 -15 2 -10 -9 3 -9 0 -15 -10 -15 -10 0 -13 7 -8 25 4
15 2 25 -5 25 -6 0 -11 6 -11 14 0 8 -9 17 -19 21 -10 3 -24 19 -31 35 -7 17
-17 30 -22 30 -6 0 -8 10 -5 22 5 17 -19 47 -131 160 -75 77 -155 156 -177
176 -58 54 -444 445 -485 492 -19 22 -38 40 -41 40 -7 0 -519 510 -1032 1029
-169 171 -314 311 -322 311 -7 0 -202 -188 -432 -417 -510 -509 -632 -628
-638 -622 -2 2 -241 240 -531 528 l-526 525 -235 -238 -235 -237 40 -42 c21
-23 308 -313 638 -644 329 -331 950 -956 1379 -1388 429 -433 909 -917 1068
-1077 158 -159 287 -293 287 -296 0 -10 -1871 -1872 -1881 -1872 -9 0 -569
555 -569 564 0 4 246 254 548 555 301 302 566 568 589 592 23 24 66 68 97 98
31 30 56 59 56 65 0 6 -84 95 -188 199 -833 834 -1183 1184 -2365 2370 -739
741 -1349 1347 -1355 1347 -6 0 -887 -874 -1957 -1942z m2115 807 c80 -80 202
-203 273 -272 70 -70 127 -133 127 -141 0 -15 -206 -227 -718 -736 -183 -182
-388 -387 -455 -455 -67 -68 -353 -355 -635 -639 -282 -283 -517 -523 -523
-533 -12 -24 43 -82 566 -599 703 -694 1765 -1766 1765 -1781 0 -17 -546 -559
-563 -559 -8 0 -1438 1429 -1644 1643 -4 5 -295 294 -645 642 -351 349 -638
638 -638 643 0 14 2920 2932 2934 2932 6 0 77 -65 156 -145z m5837 -640 c18
-19 29 -35 25 -35 -9 0 -72 56 -72 64 0 14 17 4 47 -29z m467 -526 c-6 -11
-24 -2 -24 11 0 5 7 7 15 4 8 -4 12 -10 9 -15z m45 -38 c16 -14 19 -21 10 -27
-7 -4 -18 0 -25 10 -8 11 -18 15 -26 10 -10 -6 -10 -4 1 9 16 21 13 21 40 -2z
m20 -90 c0 -10 -2 -11 -6 -3 -2 6 -11 12 -19 12 -9 0 -13 4 -9 10 9 14 35 0
34 -19z m148 -87 c-3 -3 -12 -4 -19 -1 -8 3 -5 6 6 6 11 1 17 -2 13 -5z m-12
-93 c-3 -5 -1 -12 5 -16 6 -3 13 0 16 9 6 15 34 11 34 -5 0 -4 -6 -6 -14 -3
-8 3 -17 0 -21 -6 -5 -8 -11 -8 -21 1 -12 10 -11 29 2 29 3 0 3 -4 -1 -9z
m-570 -131 c3 -5 1 -10 -4 -10 -6 0 -11 5 -11 10 0 6 2 10 4 10 3 0 8 -4 11
-10z m35 -60 c0 -5 -2 -10 -4 -10 -3 0 -8 5 -11 10 -3 6 -1 10 4 10 6 0 11 -4
11 -10z m190 -143 c0 -5 -4 -5 -10 -2 -5 3 -10 14 -10 23 0 15 2 15 10 2 5 -8
10 -19 10 -23z m-40 9 c0 -11 -19 -15 -25 -6 -3 5 1 10 9 10 9 0 16 -2 16 -4z
m750 -16 c0 -5 -2 -10 -4 -10 -3 0 -8 5 -11 10 -3 6 -1 10 4 10 6 0 11 -4 11
-10z m20 -20 c0 -5 -5 -10 -11 -10 -5 0 -7 5 -4 10 3 6 8 10 11 10 2 0 4 -4 4
-10z m29 -37 c-7 -10 -15 -20 -16 -22 -1 -2 -9 2 -18 9 -20 16 -10 30 22 30
23 0 24 -2 12 -17z m-4812 -231 c435 -435 663 -670 663 -683 0 -9 -143 -158
-317 -332 -466 -464 -469 -467 -488 -467 -18 0 -805 779 -805 796 0 12 88 112
144 163 35 33 165 164 526 533 69 70 128 127 132 128 3 0 68 -62 145 -138z
m4653 98 c0 -5 -2 -10 -4 -10 -3 0 -8 5 -11 10 -3 6 -1 10 4 10 6 0 11 -4 11
-10z m25 -30 c3 -5 1 -10 -4 -10 -6 0 -11 5 -11 10 0 6 2 10 4 10 3 0 8 -4 11
-10z m462 -66 c32 -35 39 -58 11 -35 -48 39 -67 59 -61 64 11 11 15 9 50 -29z
m-227 -19 c7 -9 8 -15 2 -15 -5 0 -12 7 -16 15 -3 8 -4 15 -2 15 2 0 9 -7 16
-15z m-130 -5 c0 -5 -4 -10 -10 -10 -5 0 -10 5 -10 10 0 6 5 10 10 10 6 0 10
-4 10 -10z m148 -48 c-7 -10 -14 -19 -15 -21 -3 -4 2 28 6 47 1 2 6 0 11 -3 8
-5 7 -12 -2 -23z m-511 -10 c-9 -2 -17 -13 -19 -25 -2 -16 -5 -18 -9 -7 -4 8
-2 26 2 39 8 20 11 22 26 10 15 -13 15 -14 0 -17z m634 -5 c-10 -9 -11 -8 -5
6 3 10 9 15 12 12 3 -3 0 -11 -7 -18z m34 13 c3 -5 1 -10 -4 -10 -6 0 -11 5
-11 10 0 6 2 10 4 10 3 0 8 -4 11 -10z m-133 -7 c-10 -4 -9 -8 5 -19 17 -12
16 -13 -4 -7 -30 7 -29 34 1 32 6 0 5 -3 -2 -6z m254 -20 c-4 -4 -12 -1 -19 7
-9 10 -9 11 1 6 7 -4 12 -2 13 6 0 11 2 11 6 0 3 -7 2 -16 -1 -19z m-501 7
c-3 -5 -12 -10 -18 -10 -7 0 -6 4 3 10 19 12 23 12 15 0z m-245 -15 c0 -8 -2
-15 -4 -15 -2 0 -6 7 -10 15 -3 8 -1 15 4 15 6 0 10 -7 10 -15z m-20 -21 c0
-14 -3 -14 -15 -4 -8 7 -15 14 -15 16 0 2 7 4 15 4 8 0 15 -7 15 -16z m311 -1
c13 -16 12 -17 -3 -4 -17 13 -22 21 -14 21 2 0 10 -8 17 -17z m374 -13 c3 -6
-1 -7 -9 -4 -18 7 -21 14 -7 14 6 0 13 -4 16 -10z m129 -2 c-3 -4 -9 -8 -15
-8 -5 0 -9 4 -9 8 0 5 7 9 15 9 8 0 12 -4 9 -9z m-304 -8 c0 -5 -5 -10 -11
-10 -5 0 -7 5 -4 10 3 6 8 10 11 10 2 0 4 -4 4 -10z m35 0 c-3 -5 -12 -10 -18
-10 -7 0 -6 4 3 10 19 12 23 12 15 0z m207 3 c-19 -7 -4 -23 16 -16 15 6 15 4
4 -10 -23 -27 -44 -8 -33 31 1 1 7 2 14 1 9 0 9 -2 -1 -6z m-496 -35 c5 4 5 3
1 -3 -5 -5 -19 -10 -32 -10 -19 -1 -22 2 -13 12 7 9 14 10 23 3 6 -5 16 -6 21
-2z m-66 -8 c0 -5 -2 -10 -4 -10 -3 0 -8 5 -11 10 -3 6 -1 10 4 10 6 0 11 -4
11 -10z m586 -23 c4 -4 -2 -7 -14 -7 -11 0 -24 5 -27 10 -7 11 30 8 41 -3z
m-486 -21 c0 -2 -11 -6 -25 -8 -13 -3 -22 -1 -19 3 5 9 44 13 44 5z m-89 -73
c13 -16 12 -17 -3 -4 -17 13 -22 21 -14 21 2 0 10 -8 17 -17z m389 -197 c0 -3
-4 -8 -10 -11 -5 -3 -10 -1 -10 4 0 6 5 11 10 11 6 0 10 -2 10 -4z m-100 -26
c0 -5 -5 -10 -11 -10 -5 0 -7 5 -4 10 3 6 8 10 11 10 2 0 4 -4 4 -10z m37 -6
c-3 -3 -12 -4 -19 -1 -8 3 -5 6 6 6 11 1 17 -2 13 -5z m-47 -24 c0 -5 -2 -10
-4 -10 -3 0 -8 5 -11 10 -3 6 -1 10 4 10 6 0 11 -4 11 -10z m-1251 -43 c8 -10
7 -14 -4 -14 -8 0 -15 6 -15 14 0 7 2 13 4 13 2 0 9 -6 15 -13z m31 -37 c0 -5
-2 -10 -4 -10 -3 0 -8 5 -11 10 -3 6 -1 10 4 10 6 0 11 -4 11 -10z m2 -65
c-12 -17 -20 -20 -29 -13 -20 16 -15 31 7 25 13 -3 20 0 20 10 0 8 -5 11 -12
7 -7 -4 -8 -3 -4 5 6 9 11 9 22 0 11 -9 11 -15 -4 -34z m1378 35 c0 -5 -2 -10
-4 -10 -3 0 -8 5 -11 10 -3 6 -1 10 4 10 6 0 11 -4 11 -10z m-103 -96 c-3 -3
-12 -4 -19 -1 -8 3 -5 6 6 6 11 1 17 -2 13 -5z m90 0 c-3 -3 -12 -4 -19 -1 -8
3 -5 6 6 6 11 1 17 -2 13 -5z m-126 -29 c5 4 6 -1 2 -10 -5 -13 -7 -14 -14 -3
-5 7 -8 18 -8 23 0 6 3 4 6 -3 2 -6 9 -10 14 -7z m155 -19 c19 -19 18 -33 -4
-57 -14 -14 -19 -16 -19 -5 0 9 7 18 15 21 25 10 -7 37 -37 31 -14 -3 -20 -3
-13 0 6 3 10 10 6 15 -9 15 36 10 52 -5z m-146 -72 c0 -3 -7 -1 -15 6 -8 7
-15 17 -15 22 0 5 7 3 15 -6 8 -8 15 -18 15 -22z m200 6 c12 -7 10 -9 -8 -7
-12 0 -22 5 -22 9 0 11 12 10 30 -2z m-383 -35 c3 -9 2 -19 -2 -23 -4 -4 -10
-1 -12 6 -3 6 -9 10 -14 6 -10 -6 -12 9 -2 19 11 11 23 8 30 -8z m339 -25 c0
-11 -1 -20 -3 -20 -1 0 -7 9 -13 20 -8 15 -8 20 3 20 7 0 13 -9 13 -20z m-386
0 c0 -5 -5 -10 -11 -10 -5 0 -7 5 -4 10 3 6 8 10 11 10 2 0 4 -4 4 -10z m451
-73 c-6 -8 -7 -18 -3 -22 4 -5 2 -5 -5 -2 -6 4 -13 1 -16 -5 -3 -7 -4 -3 -4 9
1 12 5 19 9 17 4 -3 8 0 8 5 0 6 5 11 11 11 8 0 9 -4 0 -13z m45 -12 c18 -18
4 -20 -15 -2 -12 10 -13 8 -7 -8 6 -15 4 -17 -5 -8 -6 6 -8 16 -5 22 9 15 15
14 32 -4z m-126 -5 c0 -5 -2 -10 -4 -10 -3 0 -8 5 -11 10 -3 6 -1 10 4 10 6 0
11 -4 11 -10z m-520 -65 c-7 -8 -20 -15 -29 -14 -11 0 -10 3 7 11 12 6 22 16
22 21 0 6 3 7 6 4 4 -4 1 -13 -6 -22z m555 -114 c-3 -11 -11 -21 -17 -21 -7 0
-6 5 1 14 8 10 9 16 1 21 -5 3 -10 14 -10 23 0 15 1 15 16 0 10 -10 14 -23 9
-37z m-612 9 c-3 -12 -8 -19 -11 -16 -5 6 5 36 12 36 2 0 2 -9 -1 -20z m571
-12 c6 -4 8 -9 5 -13 -3 -3 -16 3 -28 14 -15 13 -18 20 -9 24 7 2 15 -1 17 -7
2 -6 9 -14 15 -18z m-594 -27 c0 -18 -37 -54 -44 -43 -3 6 4 20 16 31 24 23
28 25 28 12z m598 -21 c-7 -11 -16 -20 -19 -20 -4 0 -5 9 -2 20 3 11 12 20 19
20 12 0 12 -4 2 -20z m132 -10 c0 -6 -11 -16 -25 -22 -14 -6 -25 -16 -25 -22
0 -6 -13 -20 -27 -30 -23 -17 -26 -17 -20 -3 3 9 3 16 -1 16 -21 -3 -19 4 9
31 18 16 35 27 40 24 5 -3 17 0 26 5 23 13 23 13 23 1z m-820 -20 c0 -5 -8
-10 -18 -10 -10 0 -23 -5 -30 -12 -7 -7 -12 -8 -12 -2 0 16 22 34 42 34 10 0
18 -4 18 -10z m715 -10 c3 -5 2 -10 -4 -10 -5 0 -13 5 -16 10 -3 6 -2 10 4 10
5 0 13 -4 16 -10z m-25 -27 c0 -7 4 -13 9 -13 5 0 8 -8 7 -17 -3 -19 -36 -32
-36 -14 0 6 5 11 10 11 22 0 8 22 -22 35 l-33 15 33 -2 c18 -1 32 -8 32 -15z
m-45 -33 c3 -5 2 -10 -4 -10 -5 0 -13 5 -16 10 -3 6 -2 10 4 10 5 0 13 -4 16
-10z m80 -60 c3 -6 -1 -7 -9 -4 -18 7 -21 14 -7 14 6 0 13 -4 16 -10z m-239
-51 c3 -6 1 -15 -6 -19 -7 -4 -10 -13 -6 -19 5 -7 1 -9 -9 -5 -11 5 -13 10 -6
17 5 5 7 16 4 23 -6 17 13 19 23 3z m-86 -14 c0 -8 -4 -15 -9 -15 -5 0 -11 7
-15 15 -3 9 0 15 9 15 8 0 15 -7 15 -15z m146 -4 c0 -11 -5 -17 -13 -14 -17 6
-17 20 0 26 6 3 12 6 12 6 1 1 1 -7 1 -18z m-17 -52 c-7 -14 -14 -18 -21 -11
-13 13 -2 32 18 32 12 0 13 -4 3 -21z m81 6 c0 -6 -3 -14 -6 -18 -7 -7 -34 15
-28 24 6 11 34 6 34 -6z m-129 -34 c-16 -10 -41 -4 -41 10 0 4 7 6 15 3 9 -4
15 -1 15 7 0 10 3 10 12 1 10 -10 10 -15 -1 -21z m-61 -51 c0 -5 -9 -19 -20
-30 l-20 -20 0 24 c0 22 10 33 33 35 4 1 7 -3 7 -9z m-50 -152 c0 -4 -4 -8 -9
-8 -6 0 -12 4 -15 8 -3 5 1 9 9 9 8 0 15 -4 15 -9z m-45 -8 c3 -5 2 -10 -4
-10 -5 0 -13 5 -16 10 -3 6 -2 10 4 10 5 0 13 -4 16 -10z m-246 -281 c-13 -26
-20 -21 -12 9 3 12 9 19 14 16 5 -3 4 -14 -2 -25z m-102 -15 c-3 -3 -12 -4
-19 -1 -8 3 -5 6 6 6 11 1 17 -2 13 -5z m71 -26 c-3 -7 -12 -14 -21 -16 -12
-2 -15 1 -11 12 7 19 38 22 32 4z m-248 -238 c0 -5 -5 -10 -11 -10 -5 0 -7 5
-4 10 3 6 8 10 11 10 2 0 4 -4 4 -10z m-505 -490 c-3 -5 -10 -10 -16 -10 -5 0
-9 5 -9 10 0 6 7 10 16 10 8 0 12 -4 9 -10z m-45 -60 c0 -5 -7 -10 -16 -10 -8
0 -12 5 -9 10 3 6 10 10 16 10 5 0 9 -4 9 -10z"/>
<path d="M16485 13460 c4 -6 11 -8 16 -5 14 9 11 15 -7 15 -8 0 -12 -5 -9 -10z"/>
<path d="M15890 14253 c0 -13 29 -38 35 -31 3 3 -4 13 -15 23 -11 10 -20 13
-20 8z"/>
<path d="M15950 14190 c6 -11 16 -20 22 -20 6 0 3 9 -7 20 -10 11 -20 20 -22
20 -2 0 1 -9 7 -20z"/>
<path d="M16190 13956 c0 -2 7 -9 15 -16 13 -11 14 -10 9 4 -5 14 -24 23 -24
12z"/>
<path d="M16170 13911 c0 -10 7 -21 15 -25 16 -6 19 3 9 28 -8 22 -24 20 -24
-3z"/>
<path d="M16570 13560 c6 -11 15 -18 21 -15 13 9 11 13 -12 25 -19 11 -20 10
-9 -10z"/>
<path d="M16620 13474 c8 -10 15 -20 16 -22 1 -2 4 1 7 5 3 5 -4 15 -16 23
-21 12 -21 12 -7 -6z"/>
<path d="M16590 13420 c-13 -8 -13 -10 2 -10 9 0 20 5 23 10 8 13 -5 13 -25 0z"/>
<path d="M16483 13389 c6 -10 17 -17 24 -15 6 3 14 0 17 -7 2 -7 5 -5 5 5 1 9
-11 20 -29 26 -28 10 -29 10 -17 -9z"/>
<path d="M16588 13383 c7 -3 16 -2 19 1 4 3 -2 6 -13 5 -11 0 -14 -3 -6 -6z"/>
<path d="M16574 13318 c3 -13 5 -28 5 -34 1 -12 31 -15 31 -3 0 4 8 5 19 2 10
-3 22 0 25 6 5 7 -4 9 -24 7 -21 -2 -33 2 -40 14 -5 10 -6 20 -3 24 3 3 1 6
-5 6 -7 0 -10 -10 -8 -22z"/>
<path d="M16606 13322 c-3 -5 1 -9 9 -9 8 0 15 4 15 9 0 4 -4 8 -9 8 -6 0 -12
-4 -15 -8z"/>
<path d="M16870 13280 c0 -5 5 -10 11 -10 5 0 7 5 4 10 -3 6 -8 10 -11 10 -2
0 -4 -4 -4 -10z"/>
<path d="M16666 13271 c-18 -7 -18 -8 -3 -14 9 -3 17 -2 17 3 0 5 8 11 18 13
11 3 12 5 2 5 -8 0 -24 -3 -34 -7z"/>
<path d="M16610 13260 c-13 -8 -12 -10 3 -10 9 0 17 5 17 10 0 12 -1 12 -20 0z"/>
<path d="M16906 13242 c-7 -12 22 -38 31 -28 4 3 0 14 -9 22 -9 10 -18 12 -22
6z"/>
<path d="M16555 13220 c4 -6 11 -8 16 -5 14 9 11 15 -7 15 -8 0 -12 -5 -9 -10z"/>
<path d="M17061 13083 c7 -12 15 -20 18 -17 3 2 -3 12 -13 22 -17 16 -18 16
-5 -5z"/>
<path d="M16976 13051 c-4 -5 -2 -12 3 -15 5 -4 12 -2 15 3 4 5 2 12 -3 15 -5
4 -12 2 -15 -3z"/>
<path d="M16928 12983 c7 -3 16 -2 19 1 4 3 -2 6 -13 5 -11 0 -14 -3 -6 -6z"/>
<path d="M16880 12940 c0 -5 7 -7 15 -4 8 4 15 8 15 10 0 2 -7 4 -15 4 -8 0
-15 -4 -15 -10z"/>
<path d="M16850 12910 c-13 -8 -12 -10 3 -10 9 0 17 5 17 10 0 12 -1 12 -20 0z"/>
<path d="M16825 12870 c-16 -7 -17 -9 -3 -9 9 -1 20 4 23 9 7 11 7 11 -20 0z"/>
<path d="M17180 12841 c0 -10 19 -25 25 -20 1 2 -3 10 -11 17 -8 7 -14 8 -14
3z"/>
<path d="M17260 12815 c12 -14 26 -14 52 1 14 7 9 10 -23 10 -31 1 -37 -1 -29
-11z"/>
<path d="M17320 12779 c0 -5 5 -7 10 -4 6 3 10 8 10 11 0 2 -4 4 -10 4 -5 0
-10 -5 -10 -11z"/>
<path d="M17250 12760 c0 -5 7 -10 15 -10 8 0 15 5 15 10 0 6 -7 10 -15 10 -8
0 -15 -4 -15 -10z"/>
<path d="M17089 12743 c-13 -16 -12 -17 4 -4 9 7 17 15 17 17 0 8 -8 3 -21
-13z"/>
<path d="M16883 12740 c-13 -5 -23 -15 -22 -22 0 -10 2 -10 6 0 2 6 11 12 18
12 8 0 17 5 20 10 7 12 7 12 -22 0z"/>
<path d="M16870 12700 c-9 -6 -10 -10 -3 -10 6 0 15 5 18 10 8 12 4 12 -15 0z"/>
<path d="M16917 12689 c4 -13 8 -18 11 -10 2 7 -1 18 -6 23 -8 8 -9 4 -5 -13z"/>
<path d="M16650 12660 c0 -5 5 -10 10 -10 6 0 10 5 10 10 0 6 -4 10 -10 10 -5
0 -10 -4 -10 -10z"/>
<path d="M16940 12650 c0 -5 5 -10 11 -10 5 0 7 5 4 10 -3 6 -8 10 -11 10 -2
0 -4 -4 -4 -10z"/>
<path d="M16888 12633 c7 -3 16 -2 19 1 4 3 -2 6 -13 5 -11 0 -14 -3 -6 -6z"/>
<path d="M17501 12597 c-9 -12 -8 -16 3 -20 19 -7 27 4 17 21 -6 10 -10 10
-20 -1z"/>
<path d="M17034 12578 c-3 -4 2 -8 10 -8 8 0 17 4 20 8 3 5 -2 9 -10 9 -8 0
-17 -4 -20 -9z"/>
<path d="M16720 12550 c-9 -6 -10 -10 -3 -10 6 0 15 5 18 10 8 12 4 12 -15 0z"/>
<path d="M17463 12524 c0 -16 13 -19 21 -5 3 5 0 11 -7 14 -8 3 -14 -1 -14 -9z"/>
<path d="M16708 12523 c7 -3 16 -2 19 1 4 3 -2 6 -13 5 -11 0 -14 -3 -6 -6z"/>
<path d="M16870 12510 c-13 -8 -13 -10 2 -10 9 0 20 5 23 10 8 13 -5 13 -25 0z"/>
<path d="M17048 12513 c7 -3 16 -2 19 1 4 3 -2 6 -13 5 -11 0 -14 -3 -6 -6z"/>
<path d="M16949 12498 c-1 -2 -3 -13 -4 -26 -2 -18 0 -20 12 -10 10 8 11 14 4
16 -6 2 -9 8 -5 13 3 5 3 9 0 9 -3 0 -7 -1 -7 -2z"/>
<path d="M16852 12469 c-20 -18 -21 -23 -9 -32 8 -7 18 -19 21 -27 3 -8 4 -5
2 8 -3 16 -1 22 8 19 7 -3 19 -1 27 5 10 7 5 8 -19 5 -20 -2 -31 0 -29 7 2 6
15 10 29 11 15 0 30 3 34 8 4 4 2 7 -4 7 -5 0 -17 2 -24 5 -8 3 -24 -4 -36
-16z"/>
<path d="M17070 12470 c-8 -5 -10 -10 -5 -10 6 0 17 5 25 10 8 5 11 10 5 10
-5 0 -17 -5 -25 -10z"/>
<path d="M17034 12458 c1 -7 5 -18 9 -25 4 -7 0 -16 -10 -22 -17 -10 -17 -10
0 -11 26 0 49 -24 35 -38 -5 -5 -8 -18 -5 -28 4 -15 5 -14 6 4 0 13 5 21 9 18
4 -2 14 -1 22 5 11 6 12 9 2 9 -7 0 -10 5 -7 10 3 6 0 10 -8 10 -17 0 -30 27
-17 35 5 3 0 15 -10 25 -23 23 -29 25 -26 8z"/>
<path d="M17204 12435 c-4 -8 -10 -13 -14 -10 -5 3 -12 0 -16 -6 -4 -7 -3 -9
4 -5 6 3 13 2 17 -4 5 -9 -15 -15 -38 -11 -5 1 -6 -3 -2 -9 3 -6 11 -8 16 -5
5 4 9 -1 9 -9 0 -15 37 -32 47 -22 4 3 -1 6 -10 6 -18 0 -23 25 -7 35 5 3 7
12 3 20 -3 8 0 15 6 15 6 0 11 5 11 10 0 16 -20 12 -26 -5z"/>
<path d="M17101 12426 c-9 -11 -8 -15 4 -20 8 -3 15 -9 14 -13 -4 -22 3 -33
19 -33 10 0 13 3 6 8 -12 7 -29 52 -26 65 3 11 -4 8 -17 -7z"/>
<path d="M17140 12420 c-13 -8 -12 -10 3 -10 9 0 17 5 17 10 0 12 -1 12 -20 0z"/>
<path d="M16970 12411 c0 -6 4 -13 10 -16 6 -3 7 1 4 9 -7 18 -14 21 -14 7z"/>
<path d="M16928 12393 c6 -2 18 -2 25 0 6 3 1 5 -13 5 -14 0 -19 -2 -12 -5z"/>
<path d="M16960 12360 c0 -5 5 -10 11 -10 5 0 7 5 4 10 -3 6 -8 10 -11 10 -2
0 -4 -4 -4 -10z"/>
<path d="M17152 12354 c-7 -8 -17 -12 -21 -9 -5 2 -8 -3 -7 -12 0 -10 -9 -20
-24 -25 -25 -7 -25 -8 3 -4 18 2 27 -1 27 -10 0 -9 11 -14 28 -13 15 0 21 3
12 6 -33 13 -38 27 -17 45 11 10 25 15 31 11 6 -4 5 1 -3 10 -16 20 -13 20
-29 1z"/>
<path d="M17352 12358 c-15 -15 -16 -31 0 -26 6 2 12 12 14 21 3 20 2 21 -14
5z"/>
<path d="M17290 12313 c-7 -16 -13 -32 -11 -36 1 -5 -3 -6 -8 -3 -5 3 -23 -7
-41 -23 -27 -23 -30 -29 -16 -34 12 -5 20 1 28 21 9 22 12 24 15 9 4 -17 6
-16 24 4 11 13 17 29 14 37 -3 8 3 16 15 19 11 3 20 12 20 19 0 24 -26 15 -40
-13z"/>
<path d="M17185 12319 c-4 -6 -4 -13 -1 -16 3 -4 6 -1 6 5 0 7 4 12 10 12 6 0
6 -9 0 -26 -13 -32 -12 -37 0 -29 6 3 10 16 10 28 0 14 3 18 8 10 5 -8 13 -9
22 -3 17 11 13 15 -22 24 -15 3 -30 1 -33 -5z"/>
<path d="M16936 12301 c9 -9 34 -9 34 -1 0 5 -9 8 -20 7 -10 -1 -17 -3 -14 -6z"/>
<path d="M17316 12284 c-4 -9 -4 -19 -1 -22 2 -3 7 3 11 12 4 9 4 19 1 22 -2
3 -7 -3 -11 -12z"/>
<path d="M16975 12270 c-3 -5 -1 -10 4 -10 6 0 11 5 11 10 0 6 -2 10 -4 10 -3
0 -8 -4 -11 -10z"/>
<path d="M17100 12259 c0 -5 5 -7 10 -4 6 3 10 8 10 11 0 2 -4 4 -10 4 -5 0
-10 -5 -10 -11z"/>
<path d="M17168 12234 c2 -13 9 -24 14 -24 7 0 6 -5 -1 -13 -14 -17 -4 -28 17
-19 15 5 15 4 3 -11 -12 -15 -12 -17 3 -11 16 6 23 34 8 34 -15 0 -33 48 -19
53 6 2 2 6 -9 9 -17 4 -20 1 -16 -18z"/>
<path d="M17140 12205 c0 -8 2 -15 4 -15 2 0 6 7 10 15 3 8 1 15 -4 15 -6 0
-10 -7 -10 -15z"/>
<path d="M17036 12172 c-10 -16 9 -30 21 -17 10 10 9 14 -2 19 -8 3 -16 2 -19
-2z"/>
<path d="M16960 12146 c0 -2 7 -7 16 -10 8 -3 12 -2 9 4 -6 10 -25 14 -25 6z"/>
<path d="M17130 12146 c0 -9 30 -14 35 -6 4 6 -3 10 -14 10 -12 0 -21 -2 -21
-4z"/>
<path d="M17100 12105 c1 -26 2 -28 11 -12 8 14 8 22 0 30 -8 8 -11 3 -11 -18z"/>
<path d="M16940 12100 c-7 -12 -16 -17 -27 -13 -11 4 -14 3 -9 -5 12 -20 40
-13 53 13 13 29 -1 34 -17 5z"/>
<path d="M17042 12086 c-2 -16 -1 -28 0 -25 2 2 13 15 25 30 l23 25 -23 0
c-18 0 -24 -6 -25 -30z"/>
<path d="M16980 12089 c0 -5 5 -7 10 -4 6 3 10 8 10 11 0 2 -4 4 -10 4 -5 0
-10 -5 -10 -11z"/>
<path d="M17000 12070 c-9 -6 -10 -10 -3 -10 6 0 15 5 18 10 8 12 4 12 -15 0z"/>
<path d="M16860 12055 c0 -8 7 -15 15 -15 8 0 15 4 15 9 0 5 -7 11 -15 15 -9
3 -15 0 -15 -9z"/>
<path d="M16940 12056 c-14 -8 -29 -12 -34 -9 -5 4 -6 1 -2 -5 3 -6 2 -13 -4
-17 -18 -11 -11 -34 10 -32 18 1 25 16 21 41 -1 5 7 6 19 3 15 -4 20 0 20 14
0 22 2 22 -30 5z"/>
<path d="M17073 12055 c-9 -24 1 -27 15 -5 8 13 8 20 2 20 -6 0 -13 -7 -17
-15z"/>
<path d="M17020 12042 c0 -15 4 -20 16 -15 9 3 12 9 7 12 -4 3 -11 10 -15 15
-5 5 -8 0 -8 -12z"/>
<path d="M16995 12030 c3 -5 8 -10 11 -10 2 0 4 5 4 10 0 6 -5 10 -11 10 -5 0
-7 -4 -4 -10z"/>
<path d="M17000 11980 c0 -5 5 -10 10 -10 6 0 10 5 10 10 0 6 -4 10 -10 10 -5
0 -10 -4 -10 -10z"/>
<path d="M16976 11945 c-11 -8 -16 -15 -10 -15 5 0 18 7 28 15 11 8 16 15 10
15 -5 0 -18 -7 -28 -15z"/>
<path d="M16646 11642 c-8 -13 11 -35 23 -28 16 10 14 36 -3 36 -8 0 -17 -4
-20 -8z"/>
<path d="M16628 11593 c7 -3 16 -2 19 1 4 3 -2 6 -13 5 -11 0 -14 -3 -6 -6z"/>
<path d="M3005 7200 c-22 -5 -71 -14 -110 -21 -155 -25 -374 -121 -529 -232
-201 -143 -327 -274 -444 -462 -95 -155 -140 -252 -193 -423 -45 -147 -60
-251 -66 -457 -5 -176 -3 -201 21 -335 68 -369 235 -679 499 -926 202 -188
421 -303 737 -386 75 -19 109 -22 290 -21 233 0 323 14 535 84 143 46 233 91
357 179 158 111 342 304 422 441 l27 47 -3 468 -3 469 -23 33 c-13 18 -41 41
-62 52 -38 19 -61 20 -582 20 l-544 0 -44 -22 c-58 -30 -83 -73 -83 -144 0
-66 30 -115 87 -144 38 -19 60 -19 475 -17 l436 2 3 -327 2 -327 -58 -68
c-168 -195 -370 -324 -602 -385 -122 -32 -130 -33 -325 -32 -186 0 -207 2
-300 28 -184 50 -359 149 -506 284 -226 210 -353 461 -409 809 -24 147 -24
193 -5 343 43 323 172 596 385 811 146 147 288 234 485 296 153 49 198 56 344
55 306 -2 545 -103 812 -342 102 -91 139 -107 207 -90 105 26 153 131 103 228
-57 112 -271 282 -488 388 -196 95 -337 125 -608 130 -110 1 -218 -1 -240 -6z"/>
<path d="M20105 7115 c-5 -2 -46 -7 -90 -11 -44 -4 -69 -10 -55 -12 14 -2 31
-9 39 -15 12 -10 13 -9 6 2 -6 10 -4 12 4 6 7 -4 11 -16 8 -26 -3 -11 2 -23
11 -29 15 -8 15 -10 -3 -10 -11 -1 -14 -4 -7 -7 6 -2 10 -8 7 -12 -2 -4 49 -8
113 -9 71 -2 112 1 103 7 -8 5 -9 11 -3 15 6 4 15 -1 20 -10 5 -9 17 -14 28
-12 17 3 16 5 -6 26 -22 20 -22 22 -4 22 16 0 17 2 4 10 -10 6 -11 10 -2 10 6
0 12 6 12 13 0 7 9 13 20 14 11 1 18 -2 15 -7 -3 -5 -1 -12 5 -15 6 -4 9 -1 8
6 -2 7 8 15 22 19 20 5 16 8 -25 13 -69 9 -218 17 -230 12z m-30 -85 c3 -5 -1
-10 -9 -10 -9 0 -16 5 -16 10 0 6 4 10 9 10 6 0 13 -4 16 -10z m146 -14 c-10
-12 -51 -11 -51 1 0 3 9 3 20 0 11 -3 20 -1 20 4 0 5 5 9 11 9 8 0 8 -4 0 -14z"/>
<path d="M17770 7073 c-19 -23 -40 -69 -40 -89 0 -12 2 -12 14 -2 8 7 12 16
10 20 -5 8 23 4 32 -4 3 -4 13 -4 22 -1 9 4 13 2 9 -4 -4 -6 2 -13 13 -16 13
-3 21 1 26 15 5 16 8 18 15 7 6 -10 1 -21 -17 -36 -14 -13 -21 -23 -17 -23 5
0 14 5 21 12 14 14 20 1 25 -57 3 -28 4 -21 6 25 1 36 4 78 6 95 7 48 -18 75
-68 75 -28 0 -48 -6 -57 -17z m50 -44 c0 -5 -4 -7 -10 -4 -5 3 -10 1 -10 -6 0
-7 -3 -10 -6 -6 -8 7 4 27 17 27 5 0 9 -5 9 -11z m30 -9 c0 -5 -4 -10 -10 -10
-5 0 -10 5 -10 10 0 6 5 10 10 10 6 0 10 -4 10 -10z"/>
<path d="M19478 6947 c-43 -23 -90 -52 -105 -65 -25 -21 -23 -21 21 3 39 22
50 25 57 14 8 -13 10 -12 13 11 0 6 6 9 11 8 6 -2 9 -6 8 -10 -2 -5 7 -8 19
-8 l22 0 -22 -16 c-12 -8 -22 -22 -22 -30 0 -8 -7 -14 -16 -14 -11 0 -14 5
-10 17 4 10 3 14 -1 9 -10 -10 -12 -56 -2 -50 4 2 9 -1 11 -7 4 -13 168 67
168 81 0 14 -14 12 -28 -2 -8 -8 -12 -9 -12 -1 0 6 -3 19 -7 29 -3 10 -2 15 3
12 5 -3 14 0 21 7 10 10 7 14 -13 19 -17 5 -24 12 -20 21 9 24 -14 17 -96 -28z
m67 -57 c3 -5 1 -10 -4 -10 -6 0 -11 5 -11 10 0 6 2 10 4 10 3 0 8 -4 11 -10z"/>
<path d="M15337 6926 c-12 -30 -8 -49 8 -42 8 3 15 1 15 -4 0 -6 -4 -10 -10
-10 -5 0 -10 -6 -10 -14 0 -8 -6 -17 -12 -19 -10 -4 -10 -6 0 -6 22 -1 44 -28
29 -35 -6 -3 2 -4 18 -2 36 4 35 11 -3 91 -22 44 -30 54 -35 41z m38 -76 c3
-5 -1 -10 -10 -10 -9 0 -13 5 -10 10 3 6 8 10 10 10 2 0 7 -4 10 -10z"/>
<path d="M19665 6910 c-3 -6 1 -7 9 -4 18 7 21 14 7 14 -6 0 -13 -4 -16 -10z"/>
<path d="M19415 6840 c-3 -5 -1 -10 4 -10 6 0 11 5 11 10 0 6 -2 10 -4 10 -3
0 -8 -4 -11 -10z"/>
<path d="M17882 6820 c0 -14 2 -19 5 -12 2 6 2 18 0 25 -3 6 -5 1 -5 -13z"/>
<path d="M15303 6805 c0 -16 2 -24 4 -17 3 6 8 10 12 8 4 -3 8 1 8 9 0 8 -4
12 -8 9 -4 -2 -9 2 -12 8 -2 7 -4 0 -4 -17z"/>
<path d="M20870 6815 c0 -10 35 -45 44 -45 6 0 5 5 -2 12 -17 17 -15 28 6 21
9 -3 14 -3 11 1 -8 8 -59 18 -59 11z"/>
<path d="M15390 6780 c-13 -8 -12 -10 3 -10 9 0 17 -5 17 -11 0 -5 4 -8 10 -4
9 6 3 35 -9 35 -3 0 -13 -5 -21 -10z"/>
<path d="M20820 6786 c0 -5 125 -86 134 -86 11 0 -66 65 -78 65 -6 1 -10 6 -8
13 1 7 -9 12 -23 12 -14 0 -25 -2 -25 -4z"/>
<path d="M20930 6780 c0 -5 5 -10 11 -10 5 0 7 5 4 10 -3 6 -8 10 -11 10 -2 0
-4 -4 -4 -10z"/>
<path d="M15196 6753 c-3 -8 -10 -11 -16 -8 -5 3 -10 1 -10 -4 0 -6 6 -11 13
-11 8 0 8 -3 -2 -9 -17 -11 -16 -158 1 -178 7 -9 7 -13 0 -13 -7 0 -10 -28
-10 -72 0 -40 2 -67 5 -60 3 6 9 10 14 6 5 -3 9 2 9 11 0 9 -4 13 -10 10 -5
-3 -10 0 -10 9 0 8 8 13 18 12 12 -2 17 -11 15 -32 -1 -23 3 -30 18 -30 10 0
19 6 19 14 0 7 -4 10 -10 7 -5 -3 -10 -2 -10 3 0 6 7 13 16 16 9 4 14 9 11 13
-4 3 -2 15 4 26 8 14 8 18 0 13 -7 -5 -11 4 -11 23 0 17 5 31 11 31 8 0 7 6
-2 17 -10 11 -10 14 -1 9 7 -4 12 -2 12 6 0 8 5 6 11 -5 6 -10 9 -28 6 -40 -2
-12 -1 -47 3 -77 6 -39 8 -10 6 97 -1 84 2 147 6 140 5 -7 8 0 8 18 0 23 -3
27 -10 15 -9 -13 -14 -7 -11 12 0 4 -6 5 -14 2 -8 -4 -15 -10 -15 -16 0 -5 5
-6 10 -3 6 3 10 -1 10 -9 0 -9 -7 -16 -16 -16 -13 0 -15 7 -11 35 5 30 3 35
-14 35 -11 0 -18 4 -15 8 3 5 -1 9 -9 9 -8 0 -17 -7 -19 -14z m14 -169 c0 -2
-7 -4 -15 -4 -8 0 -15 4 -15 10 0 5 7 7 15 4 8 -4 15 -8 15 -10z m70 6 c0 -5
-2 -10 -4 -10 -3 0 -8 5 -11 10 -3 6 -1 10 4 10 6 0 11 -4 11 -10z m-70 -96
c-14 -16 -30 -19 -30 -4 0 6 6 10 14 10 9 0 13 8 9 23 -4 20 -3 20 7 4 9 -14
9 -22 0 -33z"/>
<path d="M17553 6588 c-23 -51 -44 -104 -48 -118 -7 -22 -6 -23 9 -8 9 9 16
21 16 27 0 5 5 22 12 38 6 15 10 33 9 38 -1 6 3 5 10 -2 9 -9 9 -15 0 -27 -9
-11 -9 -15 0 -18 8 -3 12 -22 11 -52 -2 -45 -1 -47 15 -35 15 13 16 11 10 -18
-11 -55 6 -37 42 45 64 149 72 172 56 166 -8 -4 -15 -14 -15 -23 -1 -14 -2
-14 -11 2 -6 10 -15 14 -22 10 -7 -4 -5 2 3 12 14 17 14 18 -8 6 -12 -6 -28
-9 -34 -5 -6 4 -8 3 -4 -4 3 -6 1 -14 -5 -18 -8 -4 -7 -9 2 -15 10 -6 8 -9 -9
-9 -22 0 -22 1 -7 30 9 17 12 30 8 30 -4 0 -2 5 5 12 14 14 16 28 3 28 -4 0
-26 -42 -48 -92z m105 -26 c2 -7 -2 -10 -12 -6 -9 3 -16 11 -16 16 0 13 23 5
28 -10z m-65 -17 c-7 -21 -13 -19 -13 6 0 11 4 18 10 14 5 -3 7 -12 3 -20z
m24 -27 c-3 -8 -6 -5 -6 6 -1 11 2 17 5 13 3 -3 4 -12 1 -19z m26 7 c-3 -9 -8
-14 -10 -11 -3 3 -2 9 2 15 9 16 15 13 8 -4z m-28 -55 c3 -5 1 -10 -4 -10 -6
0 -11 5 -11 10 0 6 2 10 4 10 3 0 8 -4 11 -10z"/>
<path d="M17759 6544 c-2 -109 -2 -174 0 -218 1 -46 2 -48 15 -30 9 11 12 29
9 43 -4 18 -3 22 7 16 8 -5 11 -4 7 2 -8 13 -14 53 -22 148 -7 79 -15 98 -16
39z"/>
<path d="M15394 6556 c-12 -13 -1 -56 15 -56 6 0 8 -7 5 -15 -4 -9 0 -15 9
-15 12 0 13 7 7 33 -11 50 -23 67 -36 53z m13 -28 c-3 -8 -6 -5 -6 6 -1 11 2
17 5 13 3 -3 4 -12 1 -19z"/>
<path d="M18988 6523 c-44 -52 -145 -233 -129 -233 5 0 12 7 15 16 3 9 11 12
18 8 8 -5 9 -1 5 12 -7 18 -7 18 8 0 13 -17 15 -18 15 -3 0 21 9 22 25 1 9
-13 16 -14 33 -5 11 6 24 20 27 31 3 11 11 20 16 20 11 0 12 -17 2 -22 -5 -1
-16 -18 -25 -36 -31 -58 0 -23 43 49 23 38 39 73 35 76 -3 3 -6 1 -6 -5 0 -7
-5 -12 -11 -12 -5 0 -8 4 -5 9 3 5 -1 12 -10 15 -9 4 -14 13 -10 21 3 8 1 15
-4 15 -6 0 -10 -5 -10 -11 0 -6 -9 -8 -21 -4 -15 5 -19 4 -15 -4 4 -6 2 -11
-3 -11 -16 0 -13 15 10 54 23 39 21 47 -3 19z m42 -103 c0 -5 -7 -10 -15 -10
-8 0 -15 5 -15 10 0 6 7 10 15 10 8 0 15 -4 15 -10z m10 -30 c0 -5 -5 -10 -11
-10 -5 0 -7 5 -4 10 3 6 8 10 11 10 2 0 4 -4 4 -10z m-76 -22 c-3 -4 -12 -8
-20 -8 -8 0 -13 4 -10 8 3 5 12 9 20 9 8 0 13 -4 10 -9z"/>
<path d="M17545 6490 c3 -5 8 -10 11 -10 2 0 4 5 4 10 0 6 -5 10 -11 10 -5 0
-7 -4 -4 -10z"/>
<path d="M17875 6428 c-5 -35 -8 -66 -7 -69 1 -4 -8 -9 -18 -12 -11 -3 -20 -1
-20 5 0 5 -5 6 -11 3 -7 -5 -3 -14 11 -27 16 -15 18 -23 10 -33 -9 -11 -7 -12
10 -8 11 3 20 2 19 -3 -1 -5 -1 -11 0 -14 1 -3 4 -33 5 -68 7 -129 16 -70 16
106 0 100 -2 182 -4 182 -2 0 -7 -28 -11 -62z m-5 -113 c0 -8 -2 -15 -4 -15
-2 0 -6 7 -10 15 -3 8 -1 15 4 15 6 0 10 -7 10 -15z"/>
<path d="M18970 6259 c0 -5 5 -7 10 -4 6 3 10 8 10 11 0 2 -4 4 -10 4 -5 0
-10 -5 -10 -11z"/>
<path d="M15653 6219 c1 -33 -4 -50 -13 -44 -5 3 -10 -3 -10 -15 0 -14 4 -19
13 -14 9 6 9 5 0 -8 -7 -8 -11 -17 -8 -20 3 -2 -1 -5 -9 -5 -8 0 -15 3 -14 6
2 18 -3 31 -13 31 -5 0 -7 -4 -4 -10 3 -5 -3 -10 -14 -10 -19 0 -19 -2 5 -62
14 -35 28 -69 31 -75 3 -7 13 -13 22 -13 10 0 12 -3 5 -8 -8 -5 -5 -20 9 -52
10 -25 21 -40 24 -33 2 7 0 21 -6 31 -8 16 -7 21 5 26 8 3 12 2 9 -4 -3 -6 3
-10 14 -10 11 0 23 5 27 12 5 7 2 8 -7 3 -10 -5 -11 -5 -4 2 6 6 20 14 32 17
16 5 23 2 26 -11 4 -14 5 -14 6 -2 1 16 -104 257 -119 273 -4 4 -8 2 -7 -5z
m-13 -129 c0 -5 -2 -10 -4 -10 -3 0 -8 5 -11 10 -3 6 -1 10 4 10 6 0 11 -4 11
-10z m90 -110 c0 -5 -4 -10 -10 -10 -5 0 -10 5 -10 10 0 6 5 10 10 10 6 0 10
-4 10 -10z"/>
<path d="M6102 6178 c-114 -9 -208 -36 -325 -94 -82 -42 -173 -102 -201 -133
-24 -27 -31 -21 -34 28 -10 155 -124 241 -241 181 -52 -26 -78 -61 -91 -123
-8 -37 -10 -328 -8 -1007 l3 -955 27 -41 c32 -50 80 -74 147 -74 45 0 56 5 92
38 72 64 70 43 69 625 -1 559 1 616 31 746 28 123 68 192 171 293 135 134 269
191 499 214 45 4 63 11 92 37 68 63 73 159 13 225 -40 43 -87 51 -244 40z"/>
<path d="M10295 6173 c-176 -31 -374 -124 -524 -244 -46 -36 -77 -55 -81 -48
-4 6 -7 46 -8 88 0 126 -48 194 -144 207 -72 10 -129 -30 -167 -117 -21 -46
-21 -59 -21 -1400 0 -949 3 -1366 11 -1394 22 -78 115 -135 197 -120 19 4 51
22 73 43 31 29 41 48 49 89 5 29 9 258 9 509 1 251 2 458 4 460 2 2 21 -11 43
-29 124 -104 284 -188 449 -237 98 -29 127 -33 270 -37 138 -4 173 -2 252 16
135 31 237 71 338 134 215 133 342 273 446 492 76 157 102 276 102 455 0 219
-39 388 -131 563 -217 415 -706 654 -1167 570z m328 -317 c167 -32 298 -106
424 -239 91 -97 149 -198 189 -332 23 -78 27 -108 27 -225 1 -113 -3 -148 -22
-215 -84 -290 -314 -512 -591 -570 -350 -74 -718 99 -870 410 -113 229 -114
529 -3 748 53 105 145 213 241 285 111 82 212 122 372 146 60 8 164 5 233 -8z"/>
<path d="M13045 6184 c-250 -29 -485 -146 -666 -331 -155 -158 -256 -335 -305
-533 -25 -102 -30 -364 -9 -475 45 -244 183 -477 380 -641 114 -96 221 -155
375 -207 143 -49 227 -60 395 -54 147 6 228 23 380 81 237 91 441 277 577 526
168 307 152 765 -37 1086 -222 375 -663 597 -1090 548z m328 -340 c84 -22 147
-53 242 -121 109 -79 193 -182 259 -318 65 -133 80 -202 79 -360 -1 -131 -27
-243 -79 -348 -97 -191 -265 -336 -466 -403 -77 -26 -95 -28 -243 -29 -144 0
-166 2 -225 24 -344 125 -560 425 -560 775 0 172 43 310 141 452 128 185 281
290 488 335 101 22 263 19 364 -7z"/>
<path d="M6865 6173 c-54 -10 -67 -16 -100 -44 -67 -59 -67 -62 -63 -751 4
-599 5 -615 27 -693 101 -360 347 -610 695 -707 116 -32 165 -39 291 -39 102
0 137 4 238 30 244 64 443 196 569 379 45 66 124 236 155 337 l28 90 3 625 c3
696 5 679 -64 740 -30 26 -42 30 -93 30 -64 0 -107 -22 -145 -73 -21 -28 -21
-39 -27 -660 -6 -690 -4 -665 -67 -797 -47 -97 -123 -191 -205 -253 -118 -91
-241 -128 -418 -128 -90 0 -119 4 -184 26 -209 73 -372 230 -441 426 l-29 84
-5 630 c-4 561 -7 633 -22 660 -33 60 -92 97 -143 88z"/>
<path d="M18760 6062 c-7 -31 -17 -64 -21 -72 -4 -8 -10 -40 -13 -70 -5 -42
-4 -51 4 -37 6 9 16 14 22 11 7 -5 8 -2 3 6 -4 7 -2 16 6 21 10 6 11 9 2 9 -7
0 -13 9 -13 20 0 28 17 25 24 -5 6 -24 29 -34 40 -16 3 5 -2 8 -11 7 -10 0
-19 7 -21 19 -2 16 -1 17 7 5 8 -11 11 -12 11 -2 0 8 -9 16 -20 19 -16 4 -18
8 -9 19 9 11 8 14 -1 14 -9 0 -8 7 4 25 10 15 12 25 6 25 -7 0 -8 5 -3 13 11
17 13 36 4 42 -5 2 -14 -21 -21 -53z"/>
<path d="M17446 6055 c-9 -26 -7 -32 5 -12 6 10 9 21 6 23 -2 3 -7 -2 -11 -11z"/>
<path d="M18864 6002 c-9 -6 -10 -18 -5 -39 1 -5 7 3 12 16 10 27 9 33 -7 23z"/>
<path d="M17279 5968 c-16 -41 -68 -157 -80 -180 -6 -11 -6 -18 -1 -18 5 0 15
14 22 30 15 35 26 38 36 8 6 -19 7 -19 16 -5 5 10 16 17 24 17 8 0 12 -4 9
-10 -3 -6 1 -7 9 -4 20 8 22 -25 4 -46 -11 -12 -10 -12 5 -1 9 7 17 17 17 21
0 4 7 25 16 46 9 22 15 39 13 39 -1 0 3 10 10 23 7 14 8 22 1 22 -5 0 -10 -7
-10 -15 0 -8 -5 -15 -11 -15 -5 0 -8 4 -5 8 5 9 -32 45 -50 48 -7 1 -12 -8
-13 -20 -2 -65 -6 -86 -14 -86 -5 0 -7 9 -4 20 3 10 0 22 -7 25 -8 3 -8 7 2
11 6 3 10 9 7 14 -3 4 4 29 15 54 10 25 15 46 11 46 -5 0 -14 -15 -22 -32z"/>
<path d="M18845 5914 c-9 -50 -1 -52 12 -4 5 22 7 40 3 40 -4 0 -11 -16 -15
-36z"/>
<path d="M18815 5900 c3 -5 8 -10 11 -10 2 0 4 5 4 10 0 6 -5 10 -11 10 -5 0
-7 -4 -4 -10z"/>
<path d="M15289 5868 c-1 -18 -3 -40 -4 -48 -1 -8 -3 -30 -4 -47 -1 -23 -6
-33 -17 -33 -14 0 -14 3 -4 15 9 11 9 15 1 15 -7 0 -9 10 -5 28 5 22 4 25 -7
15 -7 -7 -21 -13 -31 -13 -10 0 -21 -7 -24 -15 -4 -8 -10 -12 -15 -9 -5 3 -9
-1 -10 -8 -3 -39 3 -354 7 -357 2 -3 10 1 17 9 9 10 9 11 -1 6 -13 -8 -12 27
2 41 4 5 6 2 4 -6 -2 -7 5 -15 15 -16 12 -2 17 3 17 21 0 14 -4 23 -9 19 -5
-3 -13 0 -17 6 -4 7 -3 9 3 6 5 -3 17 3 26 14 13 14 18 43 21 105 1 46 6 87 9
91 7 6 11 -12 8 -30 -1 -4 5 -15 14 -23 13 -14 15 -2 15 115 0 72 -2 131 -5
131 -3 0 -6 -15 -6 -32z"/>
<path d="M17763 5760 c0 -30 2 -43 4 -27 2 15 2 39 0 55 -2 15 -4 2 -4 -28z"/>
<path d="M18701 5774 c0 -11 3 -14 6 -6 3 7 2 16 -1 19 -3 4 -6 -2 -5 -13z"/>
<path d="M17877 5750 c3 -11 7 -20 9 -20 2 0 4 9 4 20 0 11 -4 20 -9 20 -5 0
-7 -9 -4 -20z"/>
<path d="M17185 5749 c-4 -6 -5 -12 -2 -15 2 -3 7 2 10 11 7 17 1 20 -8 4z"/>
<path d="M17873 5700 c-1 -11 2 -20 8 -20 5 0 9 9 9 20 0 11 -4 20 -8 20 -4 0
-8 -9 -9 -20z"/>
<path d="M17879 5668 c-1 -2 -3 -28 -5 -57 -3 -30 -7 -57 -9 -59 -2 -2 -12 3
-21 13 -17 17 -18 17 -24 -1 -4 -9 -6 -39 -5 -66 1 -36 -2 -48 -13 -48 -8 0
-12 6 -9 14 3 7 0 19 -6 26 -9 10 -9 11 0 6 10 -5 11 2 7 26 -3 18 -5 45 -4
61 0 15 -4 27 -9 27 -5 0 -12 10 -14 23 -6 32 -11 -134 -7 -240 1 -37 3 -43
10 -28 5 11 9 32 9 48 1 20 6 27 22 27 11 0 18 -4 15 -9 -3 -5 1 -12 10 -15
22 -9 24 -8 24 9 0 8 4 15 8 15 12 0 9 -40 -3 -40 -5 0 -2 -5 8 -11 9 -6 15
-14 12 -20 -4 -5 -2 -9 4 -9 6 0 10 60 10 155 1 85 -1 155 -4 155 -3 0 -5 -1
-6 -2z m-14 -154 c0 -13 -6 -24 -13 -24 -7 0 -10 5 -7 10 3 6 1 10 -4 10 -19
0 -12 26 7 27 12 1 17 -6 17 -23z"/>
<path d="M15287 5623 c-10 -9 -9 -33 1 -33 4 0 8 9 9 20 2 21 0 24 -10 13z"/>
<path d="M20494 5610 c-10 -4 10 -7 44 -8 34 0 62 3 62 8 0 10 -78 9 -106 0z"/>
<path d="M20610 5611 c0 -6 17 -11 37 -11 42 0 39 9 -6 16 -18 3 -31 1 -31 -5z"/>
<path d="M20700 5610 c-13 -8 -12 -10 3 -10 9 0 17 5 17 10 0 12 -1 12 -20 0z"/>
<path d="M20748 5608 c6 -6 18 -8 28 -6 14 3 12 5 -9 10 -19 3 -25 2 -19 -4z"/>
<path d="M20823 5603 c15 -2 37 -2 50 0 12 2 0 4 -28 4 -27 0 -38 -2 -22 -4z"/>
<path d="M20933 5603 c15 -2 39 -2 55 0 15 2 2 4 -28 4 -30 0 -43 -2 -27 -4z"/>
<path d="M20710 5568 c0 -4 14 -8 30 -8 17 0 30 2 30 4 0 2 -13 6 -30 8 -16 3
-30 1 -30 -4z"/>
<path d="M20811 5573 c-1 -18 13 -23 29 -11 12 8 12 9 -2 5 -9 -3 -19 -1 -22
6 -3 9 -5 9 -5 0z"/>
<path d="M20780 5559 c0 -5 5 -7 10 -4 6 3 10 8 10 11 0 2 -4 4 -10 4 -5 0
-10 -5 -10 -11z"/>
<path d="M20615 5539 c-38 -3 -55 -6 -37 -7 18 -1 31 -6 28 -10 -3 -5 1 -9 9
-9 8 0 12 4 9 9 -3 4 4 8 15 8 12 0 21 -4 21 -10 0 -14 84 -12 98 2 10 10 15
10 22 -2 5 -8 10 -10 10 -5 0 6 16 11 35 12 63 3 86 5 81 10 -7 7 -214 9 -291
2z"/>
<path d="M20927 5538 c-7 -5 1 -8 21 -8 17 0 32 4 32 8 0 10 -37 10 -53 0z"/>
<path d="M15891 5400 c-2 -24 114 -284 117 -265 2 9 -1 21 -6 28 -8 9 -3 19
14 34 l24 22 -4 -25 c-3 -13 -1 -24 4 -24 5 0 12 15 16 34 4 24 10 33 20 29 8
-3 11 -9 8 -14 -3 -5 0 -9 5 -9 6 0 11 3 11 6 0 6 -70 186 -75 192 -6 7 -34
-11 -29 -19 3 -5 0 -9 -7 -9 -7 0 -9 -10 -7 -25 3 -14 1 -25 -3 -25 -8 0 -12
14 -6 25 4 8 -37 34 -55 35 -9 0 -19 6 -21 13 -4 8 -6 7 -6 -3z m39 -30 c0 -5
-2 -10 -4 -10 -3 0 -8 5 -11 10 -3 6 -1 10 4 10 6 0 11 -4 11 -10z m85 -160
c-3 -5 -12 -10 -18 -10 -7 0 -6 4 3 10 19 12 23 12 15 0z"/>
<path d="M17816 5401 c-4 -5 -2 -12 3 -15 5 -4 12 -2 15 3 4 5 2 12 -3 15 -5
4 -12 2 -15 -3z"/>
<path d="M18829 5338 c-1 -7 -2 -21 -2 -30 0 -10 -3 -18 -8 -18 -5 0 -6 -7 -3
-15 8 -21 -43 -40 -62 -24 -12 10 -13 8 -8 -7 5 -18 4 -18 -11 1 -16 19 -16
18 -10 -30 9 -60 88 -283 116 -328 12 -18 18 -24 15 -14 -3 11 -3 24 1 30 12
19 14 49 3 42 -5 -3 -10 -14 -10 -23 0 -15 -2 -15 -10 -2 -13 20 -13 43 0 35
6 -3 10 3 10 14 0 15 -5 19 -17 15 -15 -5 -16 -4 -3 5 12 9 13 13 2 20 -11 7
-10 9 3 14 9 4 13 3 10 -2 -6 -11 36 -44 44 -35 3 3 -1 9 -9 14 -9 6 -2 8 22
6 l36 -3 -30 81 c-33 89 -70 221 -70 249 1 19 -7 24 -9 5z m-67 -140 c-8 -8
-9 -4 -5 13 4 13 8 18 11 10 2 -7 -1 -18 -6 -23z m68 -42 c0 -3 -4 -8 -10 -11
-5 -3 -10 -1 -10 4 0 6 5 11 10 11 6 0 10 -2 10 -4z m-20 -46 c0 -5 -4 -10
-10 -10 -5 0 -10 5 -10 10 0 6 5 10 10 10 6 0 10 -4 10 -10z m50 -45 c0 -2 -7
-8 -15 -15 -12 -10 -15 -10 -15 2 0 8 7 15 15 15 8 0 15 -1 15 -2z"/>
<path d="M17760 5290 c0 -29 2 -51 4 -49 8 8 10 88 3 95 -4 4 -7 -17 -7 -46z"/>
<path d="M21250 5155 c0 -68 4 -104 10 -100 6 3 10 1 10 -4 0 -6 -4 -11 -10
-11 -5 0 -10 -18 -10 -40 0 -42 12 -52 29 -22 10 16 11 15 17 -5 3 -12 13 -24
21 -28 13 -5 14 -3 3 11 -11 13 -11 17 0 24 7 4 21 7 31 5 21 -4 35 10 20 20
-6 3 -7 13 -4 22 4 11 3 14 -5 9 -8 -5 -12 3 -12 23 0 17 -5 31 -11 31 -6 0
-8 19 -6 50 3 34 0 53 -9 61 -10 8 -12 6 -9 -10 3 -16 -1 -21 -16 -21 -17 0
-24 11 -20 33 1 5 -4 5 -10 1 -8 -5 -10 1 -7 20 3 14 1 29 -3 32 -5 3 -9 -43
-9 -101z m44 -34 c-6 -6 -24 19 -24 34 1 6 7 1 15 -9 8 -11 12 -22 9 -25z m-7
-43 c0 -20 -1 -24 -4 -10 -2 12 -9 22 -14 22 -5 0 -9 5 -9 10 0 6 6 10 13 10
8 0 13 -13 14 -32z m53 -40 c0 -10 -4 -18 -10 -18 -5 0 -9 6 -7 13 1 6 -4 11
-11 9 -8 -1 -11 1 -8 6 10 16 36 9 36 -10z m10 -38 c0 -5 -2 -10 -4 -10 -3 0
-8 5 -11 10 -3 6 -1 10 4 10 6 0 11 -4 11 -10z"/>
<path d="M21359 5184 c-1 -5 -1 -12 0 -16 0 -5 -4 -8 -10 -8 -8 0 -8 -4 0 -14
9 -11 9 -15 0 -18 -9 -3 -9 -10 1 -28 12 -22 14 -23 20 -6 7 20 4 86 -5 94 -3
3 -6 1 -6 -4z"/>
<path d="M16930 5163 c0 -15 2 -16 10 -3 9 13 14 7 11 -12 0 -4 6 -5 14 -2 12
5 12 8 0 20 -19 19 -35 18 -35 -3z"/>
<path d="M16916 5125 c-3 -8 -1 -15 4 -15 6 0 10 -4 10 -10 0 -5 -7 -7 -15 -4
-14 6 -39 -39 -89 -160 -19 -46 -19 -43 -3 -49 8 -3 14 4 15 20 4 55 32 47 32
-9 0 -17 8 -33 20 -40 11 -7 20 -20 21 -28 0 -14 33 50 80 155 39 88 48 139
25 148 -8 3 -18 1 -22 -5 -4 -7 -10 -6 -16 3 -7 10 -8 8 -5 -8 4 -16 0 -23
-10 -23 -8 0 -11 5 -7 11 3 6 0 15 -7 20 -20 12 -26 11 -33 -6z m17 -75 c-7
-28 -13 -25 -13 6 0 14 4 23 9 20 5 -3 7 -15 4 -26z m-42 -65 c5 4 9 1 9 -4 0
-6 -9 -11 -19 -11 -15 0 -18 5 -13 23 5 18 7 19 10 4 2 -9 8 -15 13 -12z m53
-1 c3 -8 2 -12 -4 -9 -6 3 -10 10 -10 16 0 14 7 11 14 -7z"/>
<path d="M17875 5120 c3 -5 8 -10 11 -10 2 0 4 5 4 10 0 6 -5 10 -11 10 -5 0
-7 -4 -4 -10z"/>
<path d="M21360 4959 c0 -5 5 -7 10 -4 6 3 10 8 10 11 0 2 -4 4 -10 4 -5 0
-10 -5 -10 -11z"/>
<path d="M21250 4935 c0 -8 8 -15 18 -14 10 0 12 3 4 6 -6 2 -10 9 -6 14 3 5
0 9 -5 9 -6 0 -11 -7 -11 -15z"/>
<path d="M15171 4917 c0 -12 0 -102 -1 -201 0 -98 1 -181 4 -183 3 -3 10 -2
16 2 9 6 9 10 -1 16 -21 14 9 31 33 18 22 -12 34 12 32 66 0 22 4 43 10 47 8
5 7 8 -1 8 -7 0 -13 5 -13 11 0 5 5 7 12 3 7 -5 8 -3 3 6 -13 21 -15 81 -2 73
6 -4 7 -1 1 8 -5 8 -10 39 -11 69 -2 90 -2 87 -18 66 -8 -10 -12 -23 -8 -29 3
-6 1 -7 -6 -3 -6 4 -14 0 -17 -8 -3 -9 -10 -16 -15 -16 -6 0 -5 8 1 19 14 27
13 38 -5 45 -10 4 -15 -1 -14 -17z"/>
<path d="M15283 4760 c1 -93 5 -170 9 -170 3 0 7 77 8 170 0 107 -3 170 -9
170 -7 0 -9 -62 -8 -170z"/>
<path d="M16796 4873 c-12 -12 -6 -25 8 -20 10 4 13 1 9 -9 -3 -7 0 -14 6 -14
16 0 14 37 -3 43 -8 3 -17 3 -20 0z"/>
<path d="M18870 4833 c0 -18 20 -38 40 -39 26 -2 26 1 -10 26 -16 12 -30 18
-30 13z"/>
<path d="M16887 4810 c-7 -27 -1 -39 12 -24 5 5 5 18 2 28 -7 18 -8 18 -14 -4z"/>
<path d="M18905 4770 c3 -5 8 -10 11 -10 2 0 4 5 4 10 0 6 -5 10 -11 10 -5 0
-7 -4 -4 -10z"/>
<path d="M17760 4445 c0 -175 2 -316 5 -313 3 3 6 60 7 127 0 101 3 123 17
131 10 6 11 10 4 10 -8 0 -13 13 -13 29 0 16 6 32 13 35 10 5 10 7 0 12 -17 7
-17 24 0 24 7 0 14 -13 15 -30 1 -16 -2 -30 -8 -30 -5 0 -10 -5 -10 -11 0 -5
5 -7 10 -4 6 4 10 3 9 -2 -4 -23 3 -33 24 -33 12 0 17 4 11 8 -14 9 -26 42
-15 42 5 0 12 7 15 16 5 14 4 15 -9 4 -13 -11 -14 -10 -9 4 3 9 11 16 18 16 6
0 5 4 -3 9 -12 8 -12 12 -2 24 9 12 9 16 -1 20 -10 4 -10 8 2 16 13 9 13 11 1
11 -12 0 -12 3 -3 12 20 20 24 2 27 -104 1 -57 3 -109 4 -116 2 -20 21 -3 21
19 0 12 -4 17 -11 13 -8 -5 -8 -1 0 14 13 24 13 252 0 252 -9 0 -13 -14 -10
-37 1 -7 -14 -15 -34 -19 -31 -6 -60 -24 -37 -24 14 0 10 -33 -5 -49 -12 -12
-14 -8 -10 28 2 23 0 44 -5 47 -5 3 -1 13 9 21 10 8 13 12 7 9 -16 -8 -20 8
-23 74 -1 30 -4 57 -7 59 -2 2 -4 -139 -4 -314z"/>
<path d="M16690 4619 c-15 -28 -7 -34 14 -10 11 12 13 21 7 25 -5 4 -15 -3
-21 -15z"/>
<path d="M16255 4550 c3 -5 8 -10 11 -10 2 0 4 5 4 10 0 6 -5 10 -11 10 -5 0
-7 -4 -4 -10z"/>
<path d="M16377 4546 c-4 -10 -1 -13 8 -9 8 3 12 9 9 14 -7 12 -11 11 -17 -5z"/>
<path d="M19236 4525 c3 -8 10 -15 16 -15 5 0 6 -9 3 -20 -4 -13 2 -31 15 -50
12 -17 19 -36 17 -43 -4 -9 -6 -8 -6 2 -1 11 -4 11 -16 1 -10 -9 -15 -9 -15
-1 0 6 -5 11 -11 11 -5 0 -7 -5 -3 -12 4 -7 3 -8 -4 -4 -21 13 -13 26 16 27
15 0 21 3 14 6 -6 2 -10 9 -6 14 3 5 -2 9 -11 9 -9 0 -14 -4 -11 -9 12 -19
-33 -17 -56 3 -49 44 -62 50 -30 13 41 -48 162 -153 222 -194 59 -40 131 -76
137 -69 10 9 -27 37 -38 30 -7 -4 -9 -3 -5 4 3 6 2 13 -4 17 -6 4 -8 11 -5 16
4 5 -1 9 -10 9 -9 0 -15 6 -12 13 2 6 11 10 18 8 8 -1 39 -4 70 -5 l57 -3 -87
56 c-47 30 -88 58 -91 61 -3 3 -25 21 -50 40 -25 19 -46 37 -48 41 -7 16 -72
59 -66 44z m94 -125 c0 -5 -7 -10 -15 -10 -8 0 -15 5 -15 10 0 6 7 10 15 10 8
0 15 -4 15 -10z m30 0 c0 -5 -4 -10 -10 -10 -5 0 -10 5 -10 10 0 6 5 10 10 10
6 0 10 -4 10 -10z m25 -30 c3 -6 -1 -7 -9 -4 -18 7 -21 14 -7 14 6 0 13 -4 16
-10z m51 -47 c-7 -7 -26 7 -26 19 0 6 6 6 15 -2 9 -7 13 -15 11 -17z m-21 -43
c3 -6 -1 -7 -9 -4 -18 7 -21 14 -7 14 6 0 13 -4 16 -10z"/>
<path d="M21046 4475 c4 -8 2 -15 -4 -15 -6 0 -12 5 -14 10 -2 6 -19 -3 -38
-20 -19 -17 -30 -29 -23 -26 6 4 20 -5 31 -19 11 -14 23 -25 28 -25 4 0 16 -8
27 -17 11 -10 17 -12 13 -5 -4 7 -1 12 9 12 9 0 14 4 11 9 -3 5 2 15 11 22 13
11 15 11 9 1 -7 -11 -4 -11 12 -1 12 7 18 17 15 21 -2 5 1 16 8 24 10 12 9 13
-4 8 -8 -3 -18 -12 -21 -21 -4 -10 -10 -12 -19 -6 -6 5 -33 9 -59 8 -27 -1
-48 3 -48 7 0 5 5 6 10 3 6 -3 10 -2 10 4 0 6 15 7 35 4 39 -6 46 5 15 24 -16
11 -18 10 -14 -2z m-26 -65 c0 -5 -2 -10 -4 -10 -3 0 -8 5 -11 10 -3 6 -1 10
4 10 6 0 11 -4 11 -10z m60 0 c0 -5 -4 -10 -10 -10 -5 0 -10 5 -10 10 0 6 5
10 10 10 6 0 10 -4 10 -10z"/>
<path d="M16367 4459 c4 -13 8 -18 11 -10 2 7 -1 18 -6 23 -8 8 -9 4 -5 -13z"/>
<path d="M21093 4463 c0 -7 4 -13 8 -13 4 0 9 6 12 13 3 8 0 14 -7 14 -7 0
-13 -6 -13 -14z"/>
<path d="M16600 4430 c0 -5 5 -10 10 -10 6 0 10 5 10 10 0 6 -4 10 -10 10 -5
0 -10 -4 -10 -10z"/>
<path d="M20993 4359 c9 -6 15 -13 13 -17 -3 -4 4 -8 15 -8 10 0 19 2 19 5 0
8 -36 30 -50 30 -12 0 -11 -2 3 -10z"/>
<path d="M20970 4330 c0 -5 5 -10 11 -10 5 0 7 5 4 10 -3 6 -8 10 -11 10 -2 0
-4 -4 -4 -10z"/>
<path d="M17865 4298 c4 -45 6 -47 14 -18 8 26 4 50 -9 50 -4 0 -6 -15 -5 -32z"/>
<path d="M20954 4318 c4 -13 0 -18 -16 -18 -21 0 -21 0 -2 -14 26 -19 41 -4
25 26 -6 13 -9 15 -7 6z"/>
<path d="M16570 4309 c0 -5 5 -7 10 -4 6 3 10 8 10 11 0 2 -4 4 -10 4 -5 0
-10 -5 -10 -11z"/>
<path d="M20990 4305 c-11 -13 -10 -14 4 -9 9 3 16 10 16 15 0 13 -6 11 -20
-6z"/>
<path d="M16396 4235 c4 -8 8 -15 10 -15 2 0 4 7 4 15 0 8 -4 15 -10 15 -5 0
-7 -7 -4 -15z"/>
<path d="M16418 4193 c23 -57 54 -101 72 -106 21 -6 21 -5 3 16 -10 12 -21 24
-24 27 -3 3 -14 19 -23 37 -17 35 -41 56 -28 26z"/>
<path d="M16483 4191 c0 -11 5 -18 9 -15 4 3 5 11 1 19 -7 21 -12 19 -10 -4z"/>
<path d="M19916 4158 c3 -4 9 -8 15 -8 5 0 9 4 9 8 0 5 -7 9 -15 9 -8 0 -12
-4 -9 -9z"/>
<path d="M20275 4159 c-44 -4 -134 -5 -200 -2 -115 5 -121 4 -133 -16 -12 -21
-11 -21 8 -11 12 6 20 7 20 1 0 -5 8 -12 18 -14 9 -3 -4 -4 -30 -3 -27 1 -48
-1 -48 -6 0 -4 -7 -8 -17 -8 -9 0 -13 -3 -10 -7 4 -3 2 -12 -4 -20 -7 -8 -8
-13 -1 -13 5 0 13 7 16 16 3 8 11 12 16 9 6 -4 17 -1 25 5 10 8 15 9 15 2 0
-6 -9 -14 -20 -17 -23 -7 -18 -24 8 -24 9 0 47 -3 85 -7 54 -5 67 -4 67 7 0
11 2 11 8 1 10 -15 50 -24 56 -13 3 4 -13 14 -35 21 -35 12 -42 12 -50 -1 -7
-11 -9 -10 -9 5 0 15 -6 17 -30 14 -17 -3 -33 -1 -35 2 -7 11 55 21 69 13 14
-9 166 -10 166 -1 0 3 16 5 35 3 19 -2 35 1 35 6 0 5 -9 9 -21 9 -11 0 -18 4
-14 9 3 5 0 11 -7 14 -7 2 -1 2 14 0 14 -2 29 1 33 6 3 6 15 11 25 11 10 0 22
5 25 10 3 6 5 9 3 8 -2 0 -39 -4 -83 -9z"/>
<path d="M20330 4095 c0 -8 4 -15 8 -15 5 0 9 7 9 15 0 8 -4 15 -9 15 -4 0 -8
-7 -8 -15z"/>
<path d="M20235 4070 c-11 -4 -26 -5 -34 -2 -10 4 -12 1 -6 -9 6 -11 5 -12 -6
-1 -7 6 -22 12 -33 12 -19 0 -18 -1 4 -17 29 -21 42 -23 52 -8 5 7 8 6 8 -1 0
-8 14 -8 50 -1 28 5 50 13 50 17 0 5 -9 6 -20 3 -11 -3 -26 -1 -33 5 -6 5 -21
6 -32 2z"/>
<path d="M4943 1760 l2 -735 90 0 90 0 3 290 c2 159 6 292 9 295 2 3 117 6
254 8 215 3 258 6 311 23 121 38 202 107 252 214 27 55 49 164 47 230 -4 150
-91 283 -231 352 -102 50 -152 56 -507 57 l-321 1 1 -735z m585 581 c45 -6 94
-19 130 -37 31 -16 65 -27 75 -26 9 2 17 -1 17 -7 0 -6 -8 -7 -17 -4 -11 4 -7
-6 14 -33 61 -79 73 -189 33 -296 -33 -88 -115 -151 -219 -167 -70 -11 -403
-13 -419 -3 -10 7 -13 69 -14 281 0 150 4 277 8 281 5 5 61 11 124 13 63 1
133 3 155 4 22 1 73 -2 113 -6z"/>
<path d="M7543 2488 c-13 -16 -63 -137 -101 -248 -17 -47 -67 -177 -112 -290
-45 -113 -93 -236 -107 -275 -14 -38 -31 -83 -38 -100 -8 -16 -39 -100 -70
-185 -31 -85 -71 -193 -90 -240 -54 -140 -59 -126 45 -125 50 1 94 5 99 11 5
5 18 36 29 69 11 33 40 112 65 175 l45 115 99 7 c115 8 515 1 524 -10 3 -4 32
-74 63 -157 32 -82 64 -165 71 -182 l15 -33 87 3 c54 2 88 7 90 14 3 7 -17 65
-42 129 -26 65 -71 184 -100 264 -79 216 -120 325 -201 535 -41 105 -102 267
-137 360 l-63 170 -81 3 c-56 2 -83 -1 -90 -10z m118 -251 c-10 -9 -11 -8 -5
6 3 10 9 15 12 12 3 -3 0 -11 -7 -18z m-18 -24 c3 -10 31 -90 62 -178 31 -88
65 -185 75 -215 10 -30 34 -98 54 -150 19 -52 33 -96 30 -99 -8 -8 -482 -12
-487 -4 -4 7 28 96 69 188 7 17 47 130 90 253 72 209 94 249 107 205z"/>
<path d="M9528 2429 c-2 -41 -1 -373 2 -738 l5 -665 75 -3 c41 -2 82 1 89 6
13 8 15 91 18 548 1 296 3 549 3 563 l1 25 25 -30 c14 -16 33 -44 42 -62 33
-61 138 -235 203 -336 99 -152 212 -331 230 -363 9 -16 55 -91 103 -166 47
-76 86 -142 86 -146 0 -5 8 -16 18 -25 15 -13 39 -17 110 -17 51 0 93 3 93 8
1 4 2 331 3 727 1 489 -2 722 -9 727 -5 4 -49 8 -97 8 l-88 0 0 -565 c0 -311
-4 -565 -9 -565 -4 0 -23 28 -41 63 -18 34 -68 115 -111 179 -43 64 -85 132
-95 150 -9 18 -36 62 -59 98 -23 36 -77 121 -120 190 -162 259 -248 396 -264
422 -15 26 -21 28 -82 28 -37 0 -80 3 -97 6 l-31 6 -3 -73z m342 -409 c0 -5
-4 -10 -10 -10 -5 0 -10 5 -10 10 0 6 5 10 10 10 6 0 10 -4 10 -10z"/>
<path d="M15760 2492 l-105 -3 -79 -202 c-44 -111 -110 -278 -146 -372 -37
-93 -79 -199 -93 -235 -44 -110 -105 -272 -124 -329 -10 -30 -23 -56 -29 -58
-12 -4 -15 4 -57 122 -67 189 -113 309 -152 400 -24 55 -57 138 -74 185 -30
87 -66 178 -148 378 l-46 112 -123 0 c-110 0 -152 -8 -125 -24 4 -3 5 -23 2
-43 -4 -21 -6 -344 -5 -718 l3 -680 90 -3 91 -3 1 78 c4 220 -1 968 -7 1038
-6 85 3 93 26 20 7 -22 23 -62 35 -90 40 -88 105 -244 105 -250 0 -4 7 -21 15
-38 8 -18 41 -102 74 -187 95 -249 147 -379 188 -475 l39 -90 68 0 69 0 154
390 c85 215 163 408 173 430 33 73 109 261 115 286 7 26 32 65 39 58 2 -2 0
-33 -4 -68 -5 -36 -9 -298 -9 -583 l-1 -519 93 3 92 3 3 733 c1 443 -2 732 -7
732 -5 0 -15 1 -23 3 -7 1 -60 1 -118 -1z"/>
<path d="M12465 2478 c-17 -50 -59 -159 -94 -248 -23 -58 -50 -127 -60 -155
-10 -27 -44 -117 -76 -200 -32 -82 -68 -179 -82 -215 -13 -36 -38 -96 -54
-135 -17 -38 -57 -143 -89 -231 -32 -89 -68 -183 -79 -209 -12 -26 -21 -50
-21 -54 0 -9 173 -12 186 -3 6 4 22 39 37 77 63 170 107 279 114 286 11 10
549 20 593 11 33 -7 35 -11 73 -117 21 -61 51 -144 65 -185 l27 -75 83 -3
c118 -5 116 -6 86 75 -15 37 -43 115 -64 173 -21 58 -58 157 -83 220 -24 63
-52 135 -60 160 -9 25 -41 110 -73 190 -31 80 -64 165 -74 190 -9 25 -34 88
-54 140 -21 52 -44 115 -52 140 -8 25 -26 75 -40 113 l-26 67 -59 0 c-32 0
-59 -4 -59 -10 0 -5 14 -7 30 -5 32 4 43 -11 13 -17 -34 -7 -83 4 -83 18 0 17
-19 18 -25 2z m165 -33 c0 -5 -5 -3 -10 5 -5 8 -10 20 -10 25 0 6 5 3 10 -5 5
-8 10 -19 10 -25z m-27 -320 c20 -55 58 -163 85 -240 28 -77 64 -175 81 -218
17 -43 31 -84 31 -92 0 -11 -40 -14 -240 -15 -230 0 -240 0 -240 19 0 16 54
174 81 236 4 11 19 52 32 90 71 205 122 334 128 328 4 -5 23 -53 42 -108z"/>
<path d="M17743 2473 c-3 -10 -22 -56 -41 -103 -19 -47 -47 -121 -62 -165 -16
-44 -48 -132 -73 -195 -25 -63 -72 -185 -105 -270 -32 -85 -71 -182 -85 -215
-14 -33 -45 -116 -70 -185 -25 -69 -58 -154 -72 -190 -43 -105 -46 -118 -27
-122 10 -3 40 -4 67 -3 117 4 113 2 120 37 4 18 11 38 14 43 6 8 93 238 106
283 3 6 12 12 22 13 10 0 36 2 58 4 22 2 155 1 297 -2 l256 -6 48 -126 c26
-69 56 -150 66 -180 10 -30 20 -57 23 -60 10 -9 195 -12 195 -3 0 6 -18 54
-39 108 -22 55 -56 144 -76 199 -106 289 -169 455 -190 501 -13 27 -35 86 -51
130 -15 43 -31 84 -35 89 -4 6 -24 55 -44 110 -43 116 -115 318 -115 322 0 2
-41 3 -90 3 -77 0 -92 -3 -97 -17z m141 -345 c20 -57 36 -107 36 -112 0 -4 36
-101 80 -215 44 -114 80 -213 80 -219 0 -15 27 -13 -248 -18 -269 -5 -260 -8
-218 86 15 33 49 124 76 202 27 79 65 188 85 243 20 55 39 108 42 118 12 38
32 12 67 -85z m-547 -1070 c-3 -8 -6 -5 -6 6 -1 11 2 17 5 13 3 -3 4 -12 1
-19z"/>
</g>
</svg>
